<?xml version="1.0" encoding="utf-8"?>
<!-- Generator: Adobe Illustrator 19.1.0, SVG Export Plug-In . SVG Version: 6.00 Build 0)  -->
<svg version="1.1" id="behance" xmlns="http://www.w3.org/2000/svg" xmlns:xlink="http://www.w3.org/1999/xlink" x="0px" y="0px"
	 width="320.7px" height="320.7px" viewBox="-145 236.3 320.7 320.7" style="enable-background:new -145 236.3 320.7 320.7;"
	 xml:space="preserve">
<style type="text/css">
	.st0{fill:#FFFFFF;}
</style>
<g>
	<path class="st0" d="M-24.8,355.8c0-18.6-12.6-18.6-12.6-18.6h-6.7h-45.2V377h48.7C-32.2,377.1-24.8,374.4-24.8,355.8z"/>
	<path class="st0" d="M95.5,377.1c-27.6,0-31.4,27.5-31.4,27.5h58.6C122.7,404.6,123.1,377.1,95.5,377.1z"/>
	<path class="st0" d="M-37.4,404.6h-51.9v47.7h49.5c7.4-0.2,21.2-2.5,21.2-23.2C-18.6,404.3-37.4,404.6-37.4,404.6z"/>
	<path class="st0" d="M137.8,236.3h-245c-20.9,0-37.8,16.9-37.8,37.8v245c0,20.9,16.9,37.8,37.8,37.8h245
		c20.9,0,37.8-16.9,37.8-37.8v-245C175.7,253.2,158.7,236.3,137.8,236.3z M56.5,316.1h73.6v22H56.5V316.1z M19.3,431.3
		c0,54.4-56.7,52.7-56.7,52.7h-51.9h-1.5h-39.4V305.6h39.4h1.5h51.9c28.2,0,50.5,15.6,50.5,47.5S-14.1,387-14.1,387
		C21.7,387,19.3,431.3,19.3,431.3z M156.9,428.4H64.5c0,33.1,31.4,31,31.4,31c29.6,0,28.6-19.2,28.6-19.2h31.4
		c0,50.9-61,47.4-61,47.4c-73.2,0-68.5-68.2-68.5-68.2s-0.1-68.5,68.5-68.5C167,350.9,156.9,428.4,156.9,428.4z"/>
</g>
</svg>
