<?xml version="1.0" encoding="utf-8"?>
<!-- Generator: Adobe Illustrator 19.1.0, SVG Export Plug-In . SVG Version: 6.00 Build 0)  -->
<svg version="1.1" baseProfile="basic" id="Layer_1"
	 xmlns="http://www.w3.org/2000/svg" xmlns:xlink="http://www.w3.org/1999/xlink" x="0px" y="0px" viewBox="0 0 127 127"
	 xml:space="preserve">
<image display="none" overflow="visible" width="800" height="4896" xlink:href="99782CB673317D6C.jpg"  transform="matrix(1 0 0 1 -29.166 -2453.7568)">
</image>
<g>
	<path fill="#FFFFFF" d="M111.9,0H15.1C6.8,0,0,6.7,0,15.1v96.9c0,8.3,6.8,15.1,15.1,15.1h96.8c8.3,0,15.1-6.7,15.1-15.1V15.1
		C127,6.7,120.2,0,111.9,0z M88.2,18c0-2,1.6-3.5,3.6-3.5h17.2c2,0,3.6,1.6,3.6,3.5v17.1c0,2-1.6,3.5-3.6,3.5H91.8
		c-2,0-3.6-1.6-3.6-3.5V18z M63.6,39.3c13.5,0,24.4,10.9,24.4,24.4C88.1,77.1,77.1,88,63.6,88c-13.5,0-24.4-10.9-24.4-24.4
		C39.2,50.2,50.2,39.3,63.6,39.3z M112.8,108.7c0,2-1.6,3.5-3.6,3.5H18.1c-2,0-3.6-1.6-3.6-3.5V53.5h11.9c-0.9,3.2-1.4,6.7-1.4,10.2
		c0,21.3,17.3,38.5,38.6,38.5c21.3,0,38.6-17.3,38.6-38.5c0-3.5-0.5-6.9-1.4-10.2h11.9V108.7z"/>
</g>
</svg>
