<?xml version="1.0" encoding="utf-8"?>
<!-- Generator: Adobe Illustrator 19.1.0, SVG Export Plug-In . SVG Version: 6.00 Build 0)  -->
<svg version="1.1" id="Layer_1" xmlns="http://www.w3.org/2000/svg" xmlns:xlink="http://www.w3.org/1999/xlink" x="0px" y="0px"
	 width="127px" height="127px" viewBox="-242 333 127 127" style="enable-background:new -242 333 127 127;" xml:space="preserve">
<style type="text/css">
	.st0{fill:#FFFFFF;}
</style>
<g>
	<path class="st0" d="M-130.1,333h-96.8c-8.3,0-15.1,6.7-15.1,15.1V445c0,8.3,6.8,15.1,15.1,15.1h96.8c8.3,0,15.1-6.7,15.1-15.1
		v-96.9C-115,339.7-121.8,333-130.1,333z M-153.8,351c0-2,1.6-3.5,3.6-3.5h17.2c2,0,3.6,1.6,3.6,3.5v17.1c0,2-1.6,3.5-3.6,3.5h-17.2
		c-2,0-3.6-1.6-3.6-3.5C-153.8,368.1-153.8,351-153.8,351z M-178.4,372.3c13.5,0,24.4,10.9,24.4,24.4c0.1,13.4-10.9,24.3-24.4,24.3
		s-24.4-10.9-24.4-24.4C-202.8,383.2-191.8,372.3-178.4,372.3z M-129.2,441.7c0,2-1.6,3.5-3.6,3.5h-91.1c-2,0-3.6-1.6-3.6-3.5v-55.2
		h11.9c-0.9,3.2-1.4,6.7-1.4,10.2c0,21.3,17.3,38.5,38.6,38.5s38.6-17.3,38.6-38.5c0-3.5-0.5-6.9-1.4-10.2h11.9v55.2H-129.2z"/>
</g>
</svg>
