<?xml version="1.0" encoding="utf-8"?>
<!-- Generator: Adobe Illustrator 19.1.0, SVG Export Plug-In . SVG Version: 6.00 Build 0)  -->
<svg version="1.1" baseProfile="basic" id="Layer_1"
	 xmlns="http://www.w3.org/2000/svg" xmlns:xlink="http://www.w3.org/1999/xlink" x="0px" y="0px" viewBox="0 0 469.8 469.8"
	 xml:space="preserve">
<g>
	<path fill="#FFFFFF" d="M265.3,200.1v-0.6c-0.1,0.2-0.3,0.4-0.4,0.6H265.3z"/>
	<path fill="#FFFFFF" d="M384.2,0H85.5C38.4,0,0,38.4,0,85.5v298.7c0,47.2,38.4,85.5,85.5,85.5h298.7c47.2,0,85.5-38.4,85.5-85.5
		V85.5C469.8,38.4,431.4,0,384.2,0z M173.6,351.9h-59V174.4h59V351.9z M144.1,150.1h-0.4c-19.8,0-32.6-13.6-32.6-30.7
		c0-17.4,13.2-30.7,33.4-30.7c20.2,0,32.6,13.3,33,30.7C177.5,136.5,164.7,150.1,144.1,150.1z M386.4,351.9h-59v-95
		c0-23.9-8.5-40.2-29.9-40.2c-16.3,0-26,11-30.3,21.6c-1.6,3.8-1.9,9.1-1.9,14.4v99.1h-59c0,0,0.8-160.9,0-177.5h59v25.1
		c7.8-12.1,21.9-29.3,53.2-29.3c38.8,0,67.9,25.4,67.9,79.9V351.9z"/>
</g>
</svg>
