<?xml version="1.0" encoding="utf-8"?>
<!-- Generator: Adobe Illustrator 19.1.0, SVG Export Plug-In . SVG Version: 6.00 Build 0)  -->
<svg version="1.1" id="Layer_1" xmlns="http://www.w3.org/2000/svg" xmlns:xlink="http://www.w3.org/1999/xlink" x="0px" y="0px"
	 width="469.8px" height="469.8px" viewBox="-70 162.2 469.8 469.8" style="enable-background:new -70 162.2 469.8 469.8;"
	 xml:space="preserve">
<style type="text/css">
	.st0{fill:#FFFFFF;}
</style>
<g>
	<path class="st0" d="M195.3,362.3v-0.6c-0.1,0.2-0.3,0.4-0.4,0.6H195.3z"/>
	<path class="st0" d="M314.2,162.2H15.5c-47.1,0-85.5,38.4-85.5,85.5v298.7c0,47.2,38.4,85.5,85.5,85.5h298.7
		c47.2,0,85.5-38.4,85.5-85.5V247.7C399.8,200.6,361.4,162.2,314.2,162.2z M103.6,514.1h-59V336.6h59V514.1z M74.1,312.3h-0.4
		c-19.8,0-32.6-13.6-32.6-30.7c0-17.4,13.2-30.7,33.4-30.7s32.6,13.3,33,30.7C107.5,298.7,94.7,312.3,74.1,312.3z M316.4,514.1h-59
		v-95c0-23.9-8.5-40.2-29.9-40.2c-16.3,0-26,11-30.3,21.6c-1.6,3.8-1.9,9.1-1.9,14.4V514h-59c0,0,0.8-160.9,0-177.5h59v25.1
		c7.8-12.1,21.9-29.3,53.2-29.3c38.8,0,67.9,25.4,67.9,79.9L316.4,514.1L316.4,514.1z"/>
</g>
</svg>
