<?xml version="1.0" encoding="utf-8"?>
<!-- Generator: Adobe Illustrator 19.1.0, SVG Export Plug-In . SVG Version: 6.00 Build 0)  -->
<svg version="1.1" id="Layer_2" xmlns="http://www.w3.org/2000/svg" xmlns:xlink="http://www.w3.org/1999/xlink" x="0px" y="0px"
	 width="612px" height="612px" viewBox="0 91 612 612" style="enable-background:new 0 91 612 612;" xml:space="preserve">
<style type="text/css">
	.st0{fill:#FFFFFF;}
</style>
<path class="st0" d="M306,91C137,91,0,228,0,397s137,306,306,306s306-137,306-306S475,91,306,91z M313.6,502.2
	c-2.3,4.9-5.5,5.1-6.2,5.1s-0.7,0-0.7,0H135.4c0,0-6.7-0.7-7.1-7.9V293.9c0,0,1.1-6.6,7.3-7.4s84.1,0,84.1,0s41.9-0.5,62.3,27.9
	s12.4,67.5,2.3,82.5s-28.5,23-28.5,23l55.6,72.9C311.5,492.9,315.9,497.3,313.6,502.2z M495.4,478.3c-3.3,4.5-15.9,21.6-48.2,27.4
	c0,0-11.5,2.3-16.3,1.9l-89.4-0.5c0,0-7.3,0.1-7.2-7.7V293.7c0,0,1.1-6.7,6.9-6.9h83.7c0,0,36.4,0.3,50.4,21.8s11.7,40.6,11.7,42.3
	s-0.8,23.3-12.9,35.7c0,0,25.9,8.2,30.8,39.9C509.6,458.1,498.7,473.9,495.4,478.3z"/>
</svg>
