<?xml version="1.0" encoding="utf-8"?>
<!-- Generator: Adobe Illustrator 19.1.0, SVG Export Plug-In . SVG Version: 6.00 Build 0)  -->
<svg version="1.1" baseProfile="basic" id="Layer_2"
	 xmlns="http://www.w3.org/2000/svg" xmlns:xlink="http://www.w3.org/1999/xlink" x="0px" y="0px" viewBox="0 0 612 612"
	 xml:space="preserve">
<path fill="#FFFFFF" d="M306,0C137,0,0,137,0,306s137,306,306,306s306-137,306-306S475,0,306,0z M313.6,411.2
	c-2.3,4.9-5.5,5.1-6.2,5.1s-0.7,0-0.7,0H135.4c0,0-6.7-0.7-7.1-7.9V202.9c0,0,1.1-6.6,7.3-7.4c6.2-0.8,84.1,0,84.1,0
	s41.9-0.5,62.3,27.9s12.4,67.5,2.3,82.5c-10.1,15-28.5,23-28.5,23l55.6,72.9C311.5,401.9,315.9,406.3,313.6,411.2z M495.4,387.3
	c-3.3,4.5-15.9,21.6-48.2,27.4c0,0-11.5,2.3-16.3,1.9l-89.4-0.5c0,0-7.3,0.1-7.2-7.7V202.7c0,0,1.1-6.7,6.9-6.9h83.7
	c0,0,36.4,0.3,50.4,21.8c14,21.5,11.7,40.6,11.7,42.3s-0.8,23.3-12.9,35.7c0,0,25.9,8.2,30.8,39.9
	C509.6,367.1,498.7,382.9,495.4,387.3z"/>
</svg>
